<svg version="1.2" width="1365.333" height="1365.333" viewBox="0 0 1024 1024" preserveAspectRatio="xMidYMid meet" baseProfile="tiny-ps" xmlns="http://www.w3.org/2000/svg"><g transform="translate(0.000000,1024.000000) scale(0.100000,-0.100000)" fill="#000000" stroke="none"><path d="M0 5120V0h10240v10240H0V5120zm5512 3975c144-16 389-56 497-81 439-101 913-307 1311-569s711-567 1011-985c399-556 636-1133 729-1770 25-176 43-503 36-660-3-63-8-167-12-230-18-378-148-876-339-1305-45-101-224-413-317-554-227-342-558-709-809-896-14-11-51-39-81-62-73-55-210-145-333-220-448-270-886-443-1374-543-209-42-375-60-622-67-714-19-1306 114-1959 442-214 107-424 242-655 420-170 131-579 536-701 695-165 214-340 500-459 753-163 349-293 807-336 1192-17 151-24 783-10 918 60 584 247 1149 548 1650 248 413 650 846 1060 1140 311 224 646 400 1004 526 335 118 612 174 1094 221 126 12 553 4 717-15z"/><path d="M4900 8923c-201-8-570-63-818-124-204-50-347-100-577-201-909-399-1624-1138-1982-2048-178-453-257-885-257-1410 0-354 31-611 113-935 82-323 178-572 339-870 223-414 527-773 962-1135 205-171 548-381 810-496 58-25 139-60 180-79 206-91 639-209 900-244 820-113 1663 61 2439 503 167 95 273 166 460 304 369 273 683 649 983 1177 220 387 383 902 428 1355 28 289 29 605 1 860-49 452-203 926-442 1366-148 271-401 620-608 837-246 258-668 562-1036 745-380 189-757 302-1190 357-282 35-479 46-705 38zm468-168c18-6 22-15 22-45 0-21 15-74 32-117 30-72 33-86 32-188-1-138-25-221-124-436-188-405-174-369-215-538-14-57-33-120-41-140l-15-36-24 28c-15 17-43 85-71 173-25 81-64 185-86 233-140 302-203 494-214 646-8 109 4 170 52 278 20 43 34 84 31 90-10 28 10 52 49 59 52 8 543 3 572-7zm-728-10c0-2-18-39-40-82-28-54-43-102-52-157l-12-80-23 52c-40 92-68 230-50 249 15 14 177 31 177 18zm975-4c18-4 31-14 33-24 6-32-68-217-87-217-5 0-12 28-16 63-4 34-18 87-30 117-13 30-21 58-18 62 5 9 75 9 118-1zm-1285-128c24-84 105-264 140-313 21-30 63-140 54-140-3 0-43 28-89 63-306 229-667 256-915 68-95-72-149-154-175-265-54-230 33-464 204-551 236-119 518-32 624 193 29 61 32 75 32 167 0 85-3 106-23 143-62 116-147 166-271 160-209-10-332-194-233-346 29-45 119-71 177-52 42 14 82 60 90 103 4 20-1 53-14 89-12 35-16 60-10 64 35 22 130-53 143-113 14-63-22-159-82-216-34-33-147-77-196-77-101 0-214 76-257 172-32 73-32 190 0 270 24 62 89 134 156 173 69 41 190 68 272 61 260-21 564-279 733-621 109-220 156-426 170-745 11-241 13-730 3-730-9 1-47 61-103 160-85 153-188 286-316 411-158 152-312 248-616 384-131 59-262 125-311 158-149 99-291 270-349 419-16 41-21 76-22 158 0 95 3 113 33 192 35 94 115 235 159 281 99 104 740 347 938 356 30 1 32-1 54-76zm1654 47c285-61 731-240 884-355 72-54 80-75 37-91-41-15-42-39-5-125 18-40 34-97 37-128 7-71-18-206-52-278-33-73-122-183-188-232-149-111-290-159-527-181-153-14-246-32-370-71-84-27-160-64-160-79 0-3 96-4 212-2 613 9 574 10 666-21 160-54 279-118 426-228 196-148 314-294 544-673 47-77 106-175 131-216 26-41 75-138 110-215 107-234 229-472 259-507 16-18 46-66 67-106 30-58 58-92 132-160 111-102 107-100 172-112 69-13 139 8 180 55s43 61 38 212c-5 149-21 198-80 250-45 39-107 53-242 53-104 0-105 0-118-27-8-16-19-50-26-77s-19-62-27-78c-12-23-18-27-33-19-13 7-20 26-24 66-4 37-23 94-61 174-55 119-93 228-82 238 3 3 22-9 43-27 47-42 195-112 293-140 87-24 236-36 334-26l67 8-3 46-3 47-110 7c-168 10-241 28-393 99-195 90-329 217-462 434-23 39-47 73-54 77-19 13 1 19 28 8 15-5 89-49 166-97 134-84 140-89 140-120 0-50 62-111 157-156 94-44 114-46 223-17 47 12 124 30 172 39l87 16-74 96c-75 97-186 194-277 240-37 19-52 21-124 15-102-7-109-10-124-47-7-16-16-32-21-35-19-11-239 123-239 147 0 5 45 9 104 9 116 0 196 19 280 68l49 28 36-18c19-10 44-18 56-18 38 0 82 36 99 82 15 37 15 49 4 82-22 67-100 104-169 82-44-14-71-65-63-117 6-37 6-37-42-52-112-35-303-77-356-77-5 0-8-7-8-15s-3-15-6-15c-20 0-227 136-264 174l-44 46h34c19 0 53-7 75-15 62-22 238-20 309 5 131 45 192 95 239 197 20 44 22 63 21 208-1 158-8 235-22 235-4 0-29-18-55-39-26-22-96-64-156-95-123-63-185-121-235-220-34-68-29-89 33-134 22-16 37-32 34-36-12-11-137-6-193 9-76 20-211 90-246 127-25 26-26 30-9 26 24-6 234 8 256 17 9 3 22 18 28 32 11 23 9 29-13 51-24 25-25 25-99 12-43-7-114-10-164-8-78 4-110 13-288 78-180 65-343 136-334 144 2 2 56-1 119-6 105-10 305-1 400 17 21 4 30-3 55-42 45-70 71-85 159-91 67-4 82-2 130 22 38 19 59 36 70 60 18 39 21 102 6 142-9 24-6 31 31 71 41 44 41 46 37 108-7 113-75 179-185 179-86 0-143-56-151-148l-4-55-57 5c-48 5-60 3-83-15-29-24-53-90-43-121 8-24-19-27-265-35l-185-6 61 34c94 51 149 96 264 212 116 118 166 158 287 229 44 27 87 59 94 73 11 21 9 27-21 58-19 19-39 35-45 35s-58-36-115-79c-58-43-107-77-109-76-1 2 2 34 9 72 20 109 11 217-24 285-30 59-28 78 5 78 32 0 129-67 191-132 31-33 62-57 67-53 39 24 449-349 629-572 111-138 154-202 300-448 220-370 343-665 435-1045 75-305 115-782 88-1025-7-55-14-134-17-175-6-99-11-129-65-390-65-312-151-556-292-830-118-231-276-477-377-589-27-31-77-94-111-140-66-89-146-173-182-192-19-11-20-10-10 3 10 11 9 19-2 35-20 29-2 26-435 73-114 13-188 27-253 47-64 21-197 2-240-33-16-13-43-25-60-26-36-1-33-2-147 8-190 15-292 19-310 12-25-9-25-34 0-105 20-57 54-104 73-100 5 1 13-10 17-25 9-31-8-40-47-27-13 5-25 4-28-1-4-6-12-10-18-10-7 0-6 4 3 10 10 7 11 10 3 11-7 1-17 2-23 3-5 0-15 7-22 15-10 10-10 12 0 7 6-4 12-2 12 3 0 11-15 15-34 12-5-1-4 4 2 12 10 11 1 23-47 59-104 81-324 371-431 568-138 255-200 438-228 670-11 90-2 127 56 226 81 139 206 235 422 325 52 22 103 48 114 57 40 36 162 210 190 271 21 47 30 85 33 145 9 138-36 248-138 340s-224 120-398 92c-57-9-106-15-108-12-15 15 168 257 243 321 62 53 84 94 84 154 0 57-8 71-41 71s-98-30-118-53c-7-9-27-51-45-95-42-100-80-156-176-257-42-44-89-101-105-127-17-27-33-48-37-48-5 0-8 19-9 43 0 23-3 60-7 82l-7 40-38-73c-21-40-62-113-91-163-30-50-73-128-97-174l-42-85-24 35c-13 19-23 43-23 55 0 29 49 123 141 270 85 138 136 197 153 180 5-5 13-10 17-10s9 105 11 233l3 232 53 155c72 208 164 378 266 489 24 26 28 35 16 39-8 3-44 21-80 39l-65 35-78-84c-43-46-123-139-179-208-55-69-104-126-109-128s-9 144-9 355v359l78 70c42 38 106 92 142 118 83 62 140 116 140 133s-33 33-70 33c-35 0-117-39-170-80-19-15-55-37-79-50l-44-22 6 100c24 353 262 751 545 910 110 61 185 87 298 104 187 27 359-56 445-214 33-60 34-67 34-168 0-90-3-111-22-147-66-123-209-180-346-139-94 28-160 104-179 206-10 50-9 65 6 104 19 50 65 86 110 86 29 0 29 3 5-92-21-84 32-166 114-175 93-11 177 65 177 161 0 66-36 143-86 184-60 49-164 86-222 77-182-26-280-168-252-365 27-193 156-328 345-361 199-34 418 85 489 268 44 113 53 186 33 284-39 201-169 351-359 415-58 20-92 24-192 25-204 1-313-31-486-146-151-100-172-106-151-43 26 78 154 217 201 218 31 0 244 74 278 96l24 16-33 34c-20 20-43 34-57 34-55 0-243-125-257-171-4-10-10-19-15-19-7 0 28 109 46 143 23 42 71 107 79 107 6 0 72-13 149-30zm-2904-500c0-16-7-47-15-67-8-21-26-90-39-153l-24-115-17 40c-12 27-19 76-22 150-6 123-6 123 66 156 49 24 51 23 51-11zm-240-137c0-9 12-55 26-102 52-172 216-445 344-570l75-74-120 7c-162 8-168 10-160 52 14 78-51 140-141 132l-44-3v40c0 87-69 154-158 155-95 0-162-74-162-181 0-55 16-90 58-125 34-29 36-33 24-58-16-36-15-89 2-130 16-39 80-80 139-90 79-14 194 44 234 118 9 16 15 17 64 7 30-6 126-18 214-26 168-16 223-29 319-77 40-20 55-33 48-40-6-6-76-16-156-24s-187-23-238-35c-166-37-196-39-361-28-174 11-187 8-187-41 0-34 10-38 115-51 44-5 109-15 144-21l63-10-30-20c-84-53-297-128-362-128-59 0-68 13-37 54 33 42 34 68 5 143-35 94-96 150-228 208-61 26-127 61-147 77-29 23-69 37-74 26-1-2-7-59-14-128-16-163-11-241 20-306 27-55 104-125 170-155 94-42 363-51 463-15 52 19 54 8 8-49-25-30-65-57-145-98l-111-57-145 25c-80 14-173 36-207 50s-67 25-75 25c-9 0-13 15-13 49 0 58-24 94-75 111-48 16-90 4-131-36-29-29-34-42-34-80 0-108 97-168 181-111l33 22 62-41c70-47 135-62 282-66l84-3-44-38c-23-20-78-55-120-77-74-39-77-40-83-19-11 33-80 59-160 59-75 0-98-9-205-78-64-42-245-221-252-250-5-17 0-21 41-26 25-4 100-23 166-43l119-37 64 17c118 31 210 103 248 192 10 25 32 47 74 73 32 20 104 65 158 100 55 34 102 62 106 62 3 0-6-24-20-52-112-220-310-410-531-507-131-57-201-73-350-78l-133-5v-44c0-39 3-44 28-51 15-5 95-8 177-8 143 1 154 2 247 34 113 39 237 106 291 158 20 21 37 32 37 27 0-43-209-514-228-514-9 0-36 62-51 118-15 52-38 68-129 87-119 25-215-10-266-97-23-40-25-53-28-203-3-153-2-161 20-192 52-73 153-101 235-65 26 11 57 31 70 44s42 38 65 56c29 23 54 59 87 124 25 50 65 112 88 138 30 34 104 170 262 485 288 576 401 755 585 928 187 176 444 239 790 193 124-17 178-34 284-89 92-48 188-134 252-223 70-98 177-335 235-519 46-148 53-203 51-400-1-158 1-187 12-173 25 33 73-15 187-187 106-160 265-472 276-542 3-20-3-53-18-92-23-60-39-78-39-44 0 49-170 427-265 588-29 50-73 126-98 169l-46 79-3-99-3-99-44 40c-93 85-210 245-277 380-49 100-71 135-96 151-41 26-107 48-116 39-4-3-6-24-6-45 3-81 14-110 75-180 32-38 75-95 94-127s66-94 105-137c38-44 68-81 66-83s-21 0-43 6c-21 6-72 15-113 21-95 13-161 2-257-45-157-77-234-235-205-421 13-82 40-143 113-251 27-40 49-77 49-82 0-6-8-15-17-20-24-14-15-20 127-76 198-77 331-164 405-264 19-27 54-86 77-132l43-84-1-125c0-111-4-138-32-233-70-235-146-393-299-622-55-83-120-181-145-220-72-113-173-214-291-290-22-14-28-15-27-4 4 28 0 39-15 39-8 0-15 5-15 10 0 6-8 10-17 10-12 0 2 19 41 59 69 69 60 94-12 31-63-55-300-156-319-136-4 3 1 6 10 6 10 0 17 8 17 19 0 15-10 21-40 26-22 4-40 11-40 16s-7 9-15 9-15-6-15-13-12-14-26-15c-36-3-47-11-35-26 8-9 7-13-4-13-17 0-20 23-5 32 17 11 11 61-10 80-20 19-20 19 7 30 17 7 124 15 263 19 129 4 246 8 259 10 22 2 131 89 131 104 0 4-127 3-282-2-156-5-334-9-395-9-87-1-113-4-113-14 0-9-14-13-45-13-38 0-45 3-45 20 0 16 7 20 36 20 21 0 33 4 29 10-3 6-15 10-26 10s-23 10-29 24c-11 29-59 42-114 32-19-4-37-3-39 1-3 4 5 8 16 9 12 0 112 8 222 17 110 10 348 21 528 26l329 9 32 31c18 18 42 49 54 70l22 38-51 6c-53 7-419-6-719-24-96-5-326-14-510-19s-348-12-365-15c-16-3-57-11-90-17-78-15-122-33-137-58-15-24-31-25-62-5-28 18-50 67-44 93 5 19-27 29-37 11-12-18-23-8-90 84-95 128-193 294-286 484-91 187-128 276-162 394-14 46-41 136-60 199-97 318-137 628-137 1059 0 221 18 460 45 611 40 217 128 524 207 720 101 253 303 609 474 837 101 134 447 488 584 597 47 38 87 72 88 77 6 16 22 10 22-8zm1022-60c9-10 21-28 28-41 24-48-47-82-98-46-28 19-28 44-1 78 24 30 49 33 71 9zm2449-12c47-47 34-91-26-91-52 0-87 56-60 96 21 32 50 30 86-5zm-3613-417c24-17 30-61 12-95-15-28-74-26-94 3-47 67 16 139 82 92zm4782-4c30-30 27-83-6-109-50-39-94-15-94 52 0 70 56 101 100 57zm-4676-235c33-31 35-77 4-99-34-24-94-21-112 6-22 31-21 94 2 107 31 18 78 12 106-14zm4589 6c62-24 73-67 28-112-38-37-82-39-116-4-31 30-32 71-3 102 23 24 51 29 91 14zm-2364-336c0-5-4-3-9 5s-9 22-9 30c0 16 17-16 18-35zm63-14c1-14 3-39 5-56 10-93 22-480 22-747l1-308-22-14c-13-8-36-18-51-22l-28-6 3 575c2 316 6 573 11 570 4-2 7 5 7 16 0 14 5 19 15 15 8-4 12-10 9-15-2-5 2-21 10-36l15-28-6 40c-3 22-12 45-19 51-8 6-11 14-7 18 11 10 33-24 35-53zm-2752-68c39-43 109-134 118-155 2-5-8-8-23-8-77 0-190 126-211 235l-7 39 39-31c22-17 60-53 84-80zm5561-50c-28-55-78-100-93-85-7 7-20 12-30 12-24 0-23 13 2 35 11 10 20 13 20 7 0-16 16-15 34 3 8 8 22 15 31 15 8 0 19 8 22 18 6 14 22 31 31 32 1 0-6-17-17-37zm-2386-498c-29-61-92-209-140-330s-111-281-141-355c-142-360-191-465-209-452-14 10-55 69-55 79 0 5 29 72 65 151 68 149 116 261 170 402 50 129 152 333 159 318 3-7 3-3 1 9-5 18 36 94 65 123 3 3 18 23 34 45s34 45 40 50c7 6 22 25 35 43s25 32 27 30c1-2-21-53-51-113zm-3374-224c-46-64-181-138-272-147l-54-6 35 35c42 42 243 147 283 147h28l-20-29zm2566-13c-3-8-6-5-6 6-1 11 2 17 5 13 3-3 4-12 1-19zm3508-33c44-25 90-55 102-67 20-19 21-23 8-31-27-15-103 4-162 40-72 43-123 81-123 92 0 5 22 9 48 9 40 1 62-6 127-43zm-3425-27c0-4-4-8-9-8-6 0-12 4-15 8-3 5 1 9 9 9s15-4 15-9zm83-185c9-28 13-54 10-57-4-3-1-6 6-6 8 0 11-7 7-15-3-8-1-15 3-15 5 0 26-49 46-110l37-110-22-30c-12-16-25-30-29-30-9 0-52 110-95 240-65 199-74 230-65 230 5 0 9-10 9-22 0-54 14 8 20 87 1 17 57-106 73-162zm-126 135c-3-8-6-5-6 6-1 11 2 17 5 13 3-3 4-12 1-19zm-2877-678c27-27 25-62-5-90-20-19-31-22-66-17-23 3-46 11-50 19-42 66 65 144 121 88zm6573-20c34-38 34-58 1-70-69-27-144 5-144 61 0 58 93 64 143 9zm-6435-94c-8-96-40-132-73-82-15 23-14 28 22 100 44 88 59 83 51-18zm6252-47c0-15-6-32-14-38-30-25-66 72-45 122l12 29 23-43c13-24 23-56 24-70zm-3890-40c165-88 276-304 295-575 8-122-1-194-27-194-10 0-65 25-121 55s-151 73-211 95c-59 22-125 49-145 59-40 21-126 107-158 161-34 56-56 147-50 202 8 66 53 145 100 176 106 70 212 77 317 21zm1644 7c125-73 181-208 142-340-39-128-124-204-303-270-153-57-235-94-308-140-36-23-61-34-67-28-18 18-26 128-17 247 8 127 31 210 90 326 35 70 119 164 171 190 105 54 216 59 292 15zm2429-24c24-21 23-78-2-92-31-16-76-12-96 10-13 14-16 28-11 55 10 53 63 66 109 27zm-6601 1c45-52 24-103-43-103-45 0-69 21-69 60 0 16 7 36 16 44 21 21 77 20 96-1zm3682-21c6-11-66-102-76-96-16 10-8 43 18 73 25 30 48 39 58 23zm-170-287c15-7 18-15 13-54-5-40-69-196-86-211-3-3-7-9-8-15-6-35-202-495-220-515-7-8-22 23-28 60-6 38 58 242 130 415 43 102 53 118 68 108 6-4 8 0 4 9-3 9-3 19 1 22 3 4 7 14 8 24 9 61 28 150 35 164 9 17 27 15 83-7zm-464-198c65-139 110-285 110-358 0-127-33-116-81 27-32 97-86 235-105 273-7 13-10 35-7 50 2 14 6 35 7 46 3 26 14 45 27 45 6 0 28-38 49-83zm-122-402c112-127 204-308 303-595 16-47 54-134 84-195 30-60 71-155 91-210 84-230 179-427 277-575 256-387 494-607 850-787l70-35-39-19c-21-10-47-24-57-31-15-11-32-6-114 37-142 74-250 159-428 339-244 245-352 394-490 676-45 91-94 196-111 234-16 38-70 153-121 255-50 102-94 200-97 216-4 17-9 41-11 55-11 52-15 67-39 132-36 96-129 284-178 359-72 112-81 131-66 140 7 5 16 9 21 9 4 0 7 7 7 15 0 24 16 18 48-20zm597 11c-15-23-15-25 5-36 18-10 26-8 48 12 16 15 8-2-23-47-27-38-64-92-83-120-19-27-61-105-94-171-58-121-80-146-106-118-25 27-13 89 35 185 57 115 112 198 176 267 55 57 66 65 42 28zm-52-586c15-36 46-126 71-200 90-273 226-525 400-740 261-322 480-477 914-645l124-47-49-35c-58-42-58-42-234 31-302 126-552 305-743 535-85 102-219 289-274 381-140 237-291 610-277 683 6 32 36 109 40 105 2-2 14-32 28-68zm-489-148c-2-136-94-353-279-657-212-349-412-551-703-715-129-72-382-180-422-180-7 0-35 16-62 36-50 37-51 53-4 54 25 0 280 102 376 150 187 94 405 267 535 423 137 165 319 471 411 692 128 304 150 333 148 197zm149-158c26-88-8-209-124-449-78-162-207-382-297-509-71-100-313-350-406-420-63-47-126-87-276-176l-45-26-67 31c-38 16-68 33-68 37 0 3 21 13 48 22 58 20 224 112 312 174 90 64 355 330 429 431 158 215 268 431 386 757 39 107 72 174 85 174 5 0 15-21 23-46zm137-354c9-32 17-1427 9-1434-2-2-26-6-52-9l-48-7 3 754c3 642 5 756 18 771 13 16 16 15 37-11 13-16 28-45 33-64zm-2237-137c32-12 47-23 47-35s-8-18-22-18c-17 0-19-3-9-9s3-12-25-21c-97-32-229-92-274-124-28-20-57-36-65-36-17 0-150 123-195 180l-29 37 102 2c56 1 156 8 222 16s136 16 155 18 37 5 40 5c3 1 26-6 53-15zm169-185c-19-19-14-28 13-28 14 0 25-4 25-10 0-5 9-10 20-10 26 0 26-16 0-23-13-3-18-10-14-21s1-16-10-16c-42 0-162-72-240-143l-39-36-46 24c-25 13-67 44-93 71l-47 47 88 41c155 72 261 111 261 95 0-5 5-9 11-9 5 0 8 4 4 9-3 5 9 12 27 14s37 5 43 5c5 1 4-3-3-10zm4015-14c43-2 123-13 178-24 118-22 326-43 349-34 8 3 22-1 30-9 13-12 7-21-42-70-71-69-147-117-185-117-30 0-137 55-137 70 0 20-76 52-172 74-135 31-188 53-188 77 0 10 7 19 15 19s15 4 15 9c0 10 39 20 52 14 4-2 42-6 85-9zm-271-75c-46-55-4-124 82-136 47-6 56-28 20-43-22-8-22-9 5-9 18-1 26-5 21-12-13-22-184 27-259 75-11 7-54 25-95 41-109 41-130 53-124 70 4 8 15 15 25 15s19 5 19 10c0 14 37 12 44-2 5-10 7-10 12 0 3 6 18 12 34 12s30 5 32 11c6 18 159 27 185 11l23-14-24-29zm-1915 5c8-36 11-424 3-424-3 0-26 5-50 11l-46 12 4 191c2 105 8 199 13 209 8 19 42 38 60 33 6-1 13-16 16-32zm449-28c30-33 39-86 40-237v-127l-40-16c-22-9-45-16-50-16-11 0-14 402-3 413 12 13 29 7 53-17zm1108-64c2-7-2-10-12-6-9 3-16 11-16 16 0 13 23 5 28-10zm-117-19c12-16 12-17-1-7-8 6-22 14-30 17-13 5-12 6 1 6 9 1 23-7 30-16zm441-119c91-33 102-41 83-60-7-8-22-14-32-15-16 0-16-1 2-9 11-5 14-9 8-9-18-1-16-21 2-21 8 0 15-4 15-9 0-11-114 18-187 47-66 27-239 114-278 141-24 17-26 21-11 21 10 0 27-9 36-21l18-20 7 22c4 13 10 17 14 11 4-7 12-8 21-2 12 8 13 13 3 30-7 11-13 22-13 24s54-20 120-50 152-66 192-80zm-3272 116c0-5-2-10-4-10-3 0-8 5-11 10-3 6-1 10 4 10 6 0 11-4 11-10zm345 0c-3-5-11-10-16-10-6 0-7 5-4 10 3 6 11 10 16 10 6 0 7-4 4-10zm-532-20c7-1 30-9 52-20l40-18-30-7c-17-4-42-10-57-15s-37-6-50-3c-18 4-20 2-9-5 16-11 19-10-79-32-63-13-147-12-156 2-4 6-2 14 5 16 11 4 11 6 0 13-10 6-8 9 9 9 12 0 22 4 22 9 0 10 41 20 115 28 28 3 52 9 55 13 8 12 65 28 68 19 2-5 9-9 15-9zm102-20c3-6-1-7-9-4-18 7-21 14-7 14 6 0 13-4 16-10zm-28-86c-3-3-12-4-19-1-8 3-5 6 6 6 11 1 17-2 13-5zm-40-10c-3-3-12-4-19-1-8 3-5 6 6 6 11 1 17-2 13-5zm-60-26c-2-7-14-12-26-11-11 2-21-2-21-7s-13-8-29-7-27 6-24 10c3 5 11 6 19 3s14-1 14 4c0 9 22 17 53 19 11 1 17-4 14-11zm3620-4c-3-3-12-4-19-1-8 3-5 6 6 6 11 1 17-2 13-5zm325-70c5-3-8-19-28-35-33-26-61-35-89-29-5 1-50 8-100 15-113 16-146 25-140 36 3 4 23 2 44-6 21-7 73-15 115-18l77-5-16 24c-14 22-14 24 2 25 11 0 13 3 5 6-6 2-10 8-7 13 5 8 116-14 137-26zm-3782 22c0-2-7-7-16-10-8-3-12-2-9 4 6 10 25 14 25 6zm-436-24c3-5-1-9-9-9s-15 4-15 9c0 4 4 8 9 8 6 0 12-4 15-8zm352-1c-10-16-58-23-70-10-8 9-8 10 1 5 6-3 22-2 35 3 30 13 40 13 34 2zm-98-28c-10-2-26-2-35 0-10 3-2 5 17 5s27-2 18-5zm1478-101c53-27 78-56 111-127 38-83 38-159 0-238-34-67-75-103-154-134-73-28-108-28-176-3-60 23-114 73-148 140-31 61-31 165 0 231 27 58 97 126 147 145 53 20 169 12 220-14zm946-9c62-35 111-100 134-179 39-135-47-278-193-320-48-14-58-14-115 1-105 27-163 77-209 180-54 122 24 291 157 341 62 23 161 13 226-23zm-1528-335c14-23-2-52-32-56-25-4-38 29-22 58 13 24 38 23 54-2z"/><path d="M5004 8672c-124-78-104-245 35-282 39-10 48-9 89 12 101 52 111 182 19 252-46 35-104 42-143 18zm110-114c7-11 7-26 0-45-7-22-17-29-43-31-20-2-37 2-42 10-13 19-11 62 3 76 17 17 69 11 82-10zM4824 8355c-36-24-48-68-35-121 17-68 116-256 162-308l40-45 10-133c12-151 23-184 59-180 13 1 26 4 28 7 3 2 9 73 14 157 7 124 14 165 33 213 13 33 27 71 31 85l6 25-31-29c-26-25-34-28-55-18-18 8-30 7-51-4-15-8-33-14-40-14-19 0-73 68-86 108-17 52 4 57 64 16 60-42 106-45 152-10 21 16 39 22 57 19 14-3 46 4 72 16 87 38 114 157 47 208-23 17-97 16-125-2-36-24-50-67-42-129l6-54-36-17c-33-15-37-15-60 0-21 14-24 21-19 48 4 18 14 43 22 56 14 22 14 25-8 43-89 71-171 95-215 63zM4123 8600c-31-13-56-55-48-80 7-21 74-59 106-60 27 0 62 46 55 73-13 55-66 86-113 67zM4350 7694c-58-49-75-115-45-174 23-45 62-70 110-70 36 0 48 5 74 35 16 19 35 53 42 75 33 110-95 206-181 134zM4555 7422c-114-27-125-190-14-223 76-23 149 34 149 116 0 62-75 122-135 107zM4213 7403c-12-2-36-17-53-33-39-37-39-74-1-121 22-26 27-39 19-47-6-6-8-28-4-56 8-49 50-96 87-96 38 0 89 29 109 62 27 45 28 146 0 202-30 62-99 101-157 89zM3902 7317c-25-30-24-63 3-95 36-43 78-44 100-2 19 37 19 60-1 88-17 25-84 31-102 9zM4475 7126c-91-91 11-240 125-183 33 16 60 72 60 122 0 49-7 61-43 74-51 20-115 14-142-13zM4645 6843c-25-25-36-60-26-86s52-57 76-57c27 0 65 46 65 80 0 61-76 103-115 63zM5600 7721c-22-11-44-36-59-65-22-43-23-50-12-101 14-61 39-88 101-106 31-10 44-8 83 9 58 26 80 60 85 131 4 68-21 115-73 137-46 19-83 18-125-5zM5854 7444c-63-62 34-150 103-93 20 17 16 76-7 99-27 27-66 25-96-6zM5419 7434c-14-38 12-76 49-72 20 2 29 11 36 35 11 41-5 63-45 63-23 0-32-6-40-26zM7747 7392c-41-45-3-122 60-122 41 0 77 42 68 80-13 55-93 81-128 42zM5685 7000c-66-9-116-25-191-63-45-23-93-63-83-70 2-2 31-11 64-21s132-46 220-80c88-35 180-70 205-80 25-9 77-33 115-54 55-30 71-44 73-64 7-60-58-286-125-435-4-10 4-11 28-7 49 10 69 21 117 67 46 45 46 45 31-58-44-307-24-512 70-735 64-149 212-326 335-400 99-60 96-55 102-150 3-47 7-104 10-127 5-43 6-43 46-43h40l-28-47c-16-27-67-115-114-196l-85-148-79-5c-92-5-166-25-203-54-14-11-32-20-40-20s-59-16-115-35c-258-88-478-285-478-427 0-27 2-48 4-48s28 23 57 51c30 27 101 82 159 120 190 127 336 184 501 196l86 6 11-32c11-32 38-48 100-58l32-6v57c0 31 3 56 6 56 4 0 33-9 64-21 53-19 60-25 75-65 11-29 27-50 45-59 33-17 64-20 55-5-3 6-3 31 1 57 6 43 8 45 16 23 9-25 86-110 99-110 4 0 9 10 11 22 5 37 34 32 115-18 83-52 258-184 286-216 16-20 17-19 17 36 0 66-22 117-71 161-106 95-197 165-276 210-3 2 40 76 179 310 64 109 145 213 166 214 19 1 28-33 42-154 6-60 25-189 42-285 50-296 68-431 69-530 1-57 7-105 15-120 23-44 356-353 431-401l30-19 45 67c25 38 67 93 94 123 26 30 54 62 62 72 12 14 9 29-16 110-30 93-125 485-137 567l-7 44 53-38c246-178 360-255 378-255 30 0 0 104-86 295-47 105-105 240-128 300-24 61-66 160-95 220-29 61-84 184-122 275-39 91-97 218-129 283-33 65-73 151-89 192-50 125-199 415-267 518-83 126-242 287-338 343-50 29-79 54-102 88-17 27-45 63-60 80-28 30-63 80-63 90 0 3 22 2 48-1 49-5 92 8 92 28 0 6-26 7-72 3-60-5-84-2-137 16-76 25-201 87-201 99 0 10 82-2 154-23 29-9 85-19 124-22 96-9 96 7 0 81-40 30-103 81-139 113-79 68-191 134-291 170-70 25-82 27-278 27-113 1-248 4-300 8-176 14-215 15-275 7zm237-114c68-14 136-26 153-28 22-2 35-12 52-43 13-22 23-46 23-53 0-17-28-12-190 39-69 21-150 45-180 54-30 8-62 20-70 25-13 9-13 11 0 20 24 15 79 12 212-14zm516-59c59-55-15-128-92-92-36 17-72 75-62 100 11 31 118 26 154-8zm440-449c56-33 102-63 102-65 0-10-123 8-162 24-62 25-167 156-168 210 0 6 28-15 63-48 34-34 108-88 165-121zm-349 115c165-218 181-243 157-243-40 0-94 28-122 63-35 45-73 134-74 175 0 39 12 41 39 5zm-105-108c24-58 57-116 96-167 33-43 63-84 66-93 6-15-11-45-27-45-14 0-151 174-170 216-21 46-42 175-33 199 6 14 8 14 19-2 7-11 29-59 49-108zm-180 56c0-17 4-31 7-31 12 0 61-174 89-318 15-81 35-165 44-186 18-44 22-161 5-151-7 5-8-4-4-27 34-194 40-236 33-232-4 3-8 13-8 22 0 15-2 15-10 2-5-8-10-10-11-5 0 6-4 1-8-10-8-19-8-19-19 1-6 11-23 66-37 123-21 81-25 110-18 139 6 20 15 36 21 35 12-3 3 25-43 137-23 54-30 92-41 230-7 91-13 171-14 178 0 6-12 12-26 12-24 0-25 2-19 33 19 88 56 119 59 48zm819-266c72-19 163-64 202-101l30-29-28-3c-15-2-56 6-90 17-147 49-235 48-337-4-139-70-219-253-192-432 20-127 123-299 214-358 25-16 79-51 120-77 111-72 201-146 458-374 232-205 338-298 543-471 137-116 215-192 233-225 8-16 12-28 9-28-4 0-79 48-168 107-165 108-294 210-466 364-139 123-428 364-646 536-157 125-214 182-276 275-127 193-147 382-60 563 57 119 141 194 266 237 62 22 114 22 188 3zm-204-266c9-45 21-70 48-100 70-78 125-89 179-35 39 39 45 87 19 149-19 46-19 47 3 47 11 0 64-46 120-101 96-95 104-101 137-97 19 2 35 0 35-6 0-7 3-7 10 0 6 6 6 22 0 44-9 32-8 33 5 16 21-27 19-60-5-81-11-10-20-24-20-31 0-21 119-142 165-169 23-14 51-35 64-49l22-24-26-21c-32-24-37-23-129 51-62 51-207 208-271 296-16 23-33 42-37 42-5 0-8-15-8-32 0-34-26-86-63-125-57-63-223 9-281 122l-16 30v-53c0-88 57-229 132-324 16-20 53-48 82-62 68-32 81-48 64-75-19-31-42-34-87-12-69 36-188 195-227 305-20 54-17 119 6 163 10 21 22 65 26 98 12 110 35 125 53 34zm292-331c30-40 72-92 95-115 49-52 86-57 133-17l31 26v-39c0-55-42-94-107-100l-48-5-77 93c-42 50-90 116-105 146-27 53-28 54-9 69 11 8 23 14 27 14 3 0 30-33 60-72zm-667-250c-4-6-2-8 4-4 6 3 27-15 49-41 20-27 93-103 161-171 101-101 121-126 111-138-16-20-20-19-86 26-87 58-300 307-288 338 2 7 1 11-4 8s-14 8-20 26c-13 38-14 41-1 33 5-3 9 2 8 12-5 67 5 66 38-5 19-41 31-78 28-84zm1173-81c38-40 94-111 125-157 57-88 114-197 106-205-9-9-378 399-378 418 0 7 27 14 56 16 14 1 44-23 91-72zm162-467c101-102 201-211 222-243 35-55 57-112 46-123-3-3-88 75-189 173-314 305-602 566-644 585-13 6-24 14-24 17 0 4 28 15 62 26l62 20 140-135c77-74 223-218 325-320zm-801 37c8-16 14-68 15-126 2-89 4-98 19-90 30 16 58 11 58-11 0-10-31-75-68-142-38-68-81-147-97-175l-28-52-73 6c-60 5-78 3-100-12-23-15-33-16-65-6-21 6-41 16-44 22-4 5 18 51 48 102s76 130 103 176 63 100 81 120c28 32 34 35 52 24 11-7 23-13 26-13s5 44 5 98 3 102 7 106c15 15 48 0 61-27zm582-444c0-2-4-1-10 2-5 3-10 1-10-4 0-6-7-11-15-11s-15 8-15 18-8 29-17 42c-14 20-10 18 25-10 23-18 42-35 42-37zm258-235c11-35 31-115 46-178 74-324 86-382 100-465 9-49 16-109 16-133 0-39-3-44-32-57-18-7-36-11-39-7-4 4-12 50-18 102-20 157-51 364-82 554s-35 246-19 246c5 0 18-28 28-62zm-136-101c19-141 61-600 56-622-3-13-7-13-38 2-34 18-35 20-42 93-21 231-28 333-33 499l-6 183 23-16c20-14 25-33 40-139z"/><path d="M6432 5415c-2-33 13-64 25-52 4 5 2 11-4 15s-13 21-16 37l-4 30-1-30zM5374 6725c-21-21-25-32-20-58 11-58 65-75 104-34 39 42 23 94-35 111-17 5-29 0-49-19zM5802 6410c-65-40-76-124-21-157 58-35 119 20 119 108 0 71-34 88-98 49zM5745 6143c-46-9-76-27-95-58-69-111 65-253 175-185 79 49 87 150 17 213-23 21-69 35-97 30zM8456 5819c-31-25-33-47-5-83 38-48 129-26 129 32 0 33-8 45-37 61-32 16-57 14-87-10zM5551 5794c-45-57-17-155 50-169 63-14 117 67 89 135-26 64-101 82-139 34zM5951 5494c-12-15-21-32-21-39 0-25 36-56 71-61 47-8 73 16 65 59-14 68-77 90-115 41zM8377 4719c-23-14-57-82-57-116 0-40 35-92 73-108 68-28 156 19 177 94 20 72-47 141-135 141-22 0-48-5-58-11zM6396 4655c-47-44-34-120 29-161 23-15 26-15 54 5 40 29 74 86 66 110-9 31-63 71-94 71-16 0-40-11-55-25zM6258 4449c-34-19-15-49 30-49 30 0 45 16 37 39-7 23-38 28-67 10zM7208 4243c-54-58-39-112 42-153 47-24 51-19 57 64 4 52 2 65-17 89-12 15-29 27-39 27-9 0-29-12-43-27zM6264 3890c-106-23-167-150-114-237 72-119 270-59 270 82-1 100-74 173-156 155zM6544 3846c-7-30 9-63 37-71 26-9 44 9 52 52 7 35-4 43-54 43-22 0-30-6-35-24zM6861 3798c-46-25-64-62-65-131-1-72 16-106 67-137 38-24 87-26 126-5 99 50 121 198 38 257-37 27-130 35-166 16zM8210 3762c0-49 25-134 48-162l18-22 27 54c15 29 27 62 27 72 0 21-29 48-82 76l-38 20v-38zM5751 3664c-22-28-27-78-12-104 12-18 78-17 97 2 23 23 33 73 20 99-18 37-77 39-105 3zM6512 3618c-21-21-14-66 13-84 52-34 111 31 70 76-20 22-65 26-83 8zM7193 3544c-20-20-24-31-19-57 13-65 60-85 110-46 50 40 23 129-39 129-14 0-37-12-52-26zM5745 3348c12-43 60-103 97-121 48-23 249-34 773-42 447-6 572-15 725-50 146-33 182-37 225-29s52 23 34 62c-12 27-18 30-108 42-87 11-180 33-331 75-67 19-410 34-780 35-222 0-475 16-564 35-14 3-38 7-52 10-23 5-25 3-19-17zM7620 3140c0-5 5-10 10-10 6 0 10 5 10 10 0 6-4 10-10 10-5 0-10-4-10-10zM5941 3032c0-4 26-41 57-82 67-88 53-83 307-99 359-23 628-31 1057-31 345 0 448 3 455 13 15 18 25 95 13 102-22 14-216 25-615 35-723 18-1166 39-1242 60-18 4-33 5-32 2zM6226 2503c-6-14-5-15 5-6 7 7 10 15 7 18s-9-2-12-12zM2726 7835c-9-9-16-29-16-45 0-65 92-97 127-44 16 25 16 28-3 63-16 30-25 37-55 39-24 2-42-3-53-13zM2280 7388c-11-18-20-39-20-46 0-45 62-88 104-72 77 29 52 150-32 150-26 0-36-7-52-32zM3545 6720c-135-18-252-88-414-249-59-58-125-120-146-138-31-24-37-34-28-43 9-10 29-10 95 0 107 16 216 52 301 100 65 37 67 38 78 19 30-58-108-151-289-195-80-20-90-28-128-100-28-53-33-58-119-98-196-92-309-230-462-561-32-72-83-177-113-235-47-92-135-281-257-555-19-44-70-154-113-245-108-230-230-524-230-556v-26l33 20c125 75 300 190 341 225l49 41-6-65c-3-35-22-125-41-199s-46-189-61-255-37-141-51-167c-19-38-21-49-10-55 18-10 81-88 147-179l51-72 87 66c111 84 226 181 325 274l80 74 3 142c3 139 39 461 84 744 22 134 47 204 70 196 19-6 327-524 318-533-2-1-33-20-69-41-89-51-214-147-245-188-21-27-25-44-25-95v-63l48 40c26 22 72 55 102 74 63 40 255 148 264 148 3 0 6-15 6-34 0-43 9-66 25-66 15 0 117 59 157 90 15 12 32 38 38 59 10 40 40 61 85 61 23 0 25-4 25-44v-43l70-7c39-4 79-5 89-1 20 6 41 45 41 77 0 19 4 20 58 14 178-21 304-78 452-206 58-50 130-105 160-122 30-18 61-39 68-47 11-14 13-9 9 29-6 61-92 208-165 283-44 46-81 70-167 113-109 53-203 84-257 84-15 0-28 5-28 11 0 5-26 22-57 37-46 20-78 27-150 30-54 3-93 9-93 15 0 5-38 73-84 151-90 153-129 227-121 234 4 5 57-10 91-24 8-3 9 8 4 38-9 49-2 185 11 210 5 10 31 32 57 50 160 109 302 291 363 464 34 98 59 233 59 318 0 117-26 320-56 441-15 57-24 111-21 118 3 8 70 32 159 56 194 53 238 69 238 86 0 8-33 48-73 89-90 93-136 115-260 126-55 4-120 18-162 33-83 29-157 38-240 27zm156-170c30-17 25-63-12-99-35-35-34-35-78-20-52 18-68 72-31 109 22 22 88 27 121 10zm416-26c29-4 51-28 35-38-4-2-64-12-132-21-69-10-136-21-148-26-33-13-43-3-31 29 23 61 39 68 146 65 54-2 112-6 130-9zm-567-289c27-32-32-150-100-200-40-30-60-31-90-7l-23 18 31 20c32 21 102 100 102 116 0 17 41 68 54 68 8 0 19-7 26-15zm136-126c-33-112-62-178-94-211-30-33-52-35-76-9-17 18-16 21 17 68 19 26 47 73 62 103 35 71 97 152 107 142 5-5-3-46-16-93zm109-36c14-35 17-179 6-234-19-92-110-199-168-199-19 0-23 5-23 29 0 41 9 61 29 61 48 0 93 105 106 245 7 80 18 115 34 115 5 0 12-8 16-17zm-531-117c75-37 171-132 203-203 62-136 28-348-78-476-46-55-383-347-804-695-163-135-469-362-629-467-28-18-29-18-23-1 23 59 87 133 180 206 316 248 480 385 712 595 231 209 273 244 342 283 140 82 253 257 253 393 0 79-28 139-98 209-74 73-113 90-203 90-87-1-127-25-212-132-41-51-114-132-161-180s-86-88-86-91c0-10 165-121 198-133 53-19 130-17 179 6 49 22 118 109 184 233 55 102 64 108 85 64 15-32 15-38-1-86-21-64-122-219-161-247-57-41-97-56-168-61-127-10-248 36-323 122-51 57-92 136-76 142 7 3 62 68 122 146 140 183 162 205 247 256 114 67 218 76 318 27zm-90-167c13-20 13-25-1-53-46-89-195-256-256-287-30-16-42-18-52-9-12 10-11 18 5 51 41 80 249 319 277 319 7 0 19-10 27-21zm583-280c-2-34-1-38 10-23 7 9 10 21 7 25-3 5 0 9 5 9 15 0 14-5-10-51-53-105-156-246-253-348-78-81-232-201-258-201-18 0-19 2-7 18 7 9 70 73 140 142 135 134 173 183 218 282 40 88 86 148 114 148 18 0 19 2 7 10-13 8-12 10 3 10 10 0 15 5 12 10-3 6-2 10 4 10 5 0 9-18 8-41zm-1137-261c0-38-319-402-337-385-9 10 85 185 163 302 40 61 78 123 85 138l13 28 38-38c21-20 38-41 38-45zm258-103c12-12-762-705-788-705-13 0-13 2 9 52 31 72 72 117 219 248 78 69 212 197 299 285l158 161 50-19c28-10 51-20 53-22zm284-407c8-18 36-58 60-88 25-30 90-131 145-225 121-205 125-213 119-224-12-19-71-18-110 1-31 16-52 19-92 15l-52-5-101 174c-55 96-101 180-101 187 0 23 12 27 41 12 41-22 52-19 38 7-12 22-8 145 5 167 13 20 32 12 48-21zm-552-348c21-11 21-10-11-199-11-63-22-118-26-124-14-24-23 31-24 147 0 95 4 132 16 155 17 35 19 35 45 21zm-329-531c-22-156-50-346-63-421-20-130-23-138-44-138-32 0-54 26-54 65 0 18 27 165 60 326 32 162 64 323 70 359 17 95 61 171 68 116 2-13-15-151-37-307zm168 173c1-13 5-21 10-18s14-15 21-39c10-37 10-87-3-275-9-126-19-234-22-240-3-5-22-10-42-10h-36l7 138c6 130 19 325 33 492l6 75 13-50c7-27 13-60 13-73z"/><path d="M4240 6137c-13-7-35-28-48-47-69-102 50-238 162-185 65 31 94 114 64 180-24 52-121 81-178 52zM1602 5818c-20-20-14-67 13-93 29-30 68-32 95-5 45 45 10 110-58 110-21 0-43-5-50-12zM4436 5793c-51-50-46-112 12-146 45-26 79-16 98 29 11 26 12 44 5 71-21 74-68 93-115 46zM4072 5478c-7-7-12-25-12-40 0-22 4-28 23-28 41 0 62 30 45 63-10 20-39 22-56 5zM1935 4769c-22-41-16-73 6-38 23 34 33 69 20 69-6 0-18-14-26-31zM1658 4703c-63-68-65-118-8-175 39-39 42-40 96-36 69 6 113 43 121 104 4 34 1 45-23 73-54 65-142 81-186 34zM3643 4679c-29-11-53-48-53-82 0-20 11-40 34-63 31-31 36-33 66-23 35 13 70 61 70 97 0 45-71 88-117 71zM2872 4254c-40-28-51-122-20-161 21-27 118 41 118 83 0 27-28 70-53 81-19 9-29 8-45-3zM3811 3883c-41-20-88-83-97-129-19-100 95-190 190-150 70 29 92 107 60 215-13 44-21 55-49 67-44 18-62 17-104-3zM1877 3804c-26-19-52-46-57-60-11-29 4-72 43-118l24-30 28 48c22 37 29 65 33 122 6 88 0 91-71 38zM3128 3780c-57-31-78-64-78-126 0-48 4-58 36-94 66-73 155-77 219-10 26 27 30 39 30 90 0 66-18 99-75 138-40 27-83 28-132 2zM4313 3660c-43-17-17-90 32-90 28 0 85 39 79 55-5 13-64 46-81 44-4 0-18-4-30-9zM2870 3555c-6-8-14-32-17-53-9-66 38-93 91-51 32 25 35 70 6 99-23 23-62 26-80 5zM4351 3349c-39-15-344-29-646-29-375 0-508-11-730-61-99-22-228-51-287-64-59-12-124-33-145-45-20-12-56-23-79-24-48-4-167-55-144-64 7-3 16 0 18 7 5 16 22 14 22-3 0-19 68-30 116-18 22 6 84 13 139 16 99 6 141 15 365 75 147 39 279 51 570 51 129 0 351 5 494 10 212 8 262 12 276 25 16 14 64 124 58 130-2 2-14-1-27-6zM5360 6111c0-7-4-10-8-7-5 3-9-2-9-10 0-13 2-13 16 0 8 9 12 19 8 22-4 4-7 2-7-5zM5370 6065c-7-9-10-18-7-21s10 4 17 15c13 25 8 27-10 6zM4174 5006c-31-14-75-63-87-98-3-10 0-41 8-70 16-61 48-94 103-104 20-4 44-12 52-19 27-22 51-25 84-11 40 16 76 83 76 139 0 122-128 210-236 163zM4466 4669c-43-50-44-78-7-111 34-31 72-36 91-13 7 8 15 35 18 60 9 88-50 126-102 64zM5825 5001c-77-35-125-120-110-197 8-46 72-114 105-114 13 0 38 11 56 25s40 25 49 25c8 0 31 7 51 15 60 25 82 116 45 185-35 66-125 94-196 61zM5580 4674c-11-28-13-94-4-118 8-21 34-20 79 1 41 20 50 40 33 79-19 46-39 64-70 64-21 0-31-6-38-26zM5451 4994c0-11 3-14 6-6 3 7 2 16-1 19-3 4-6-2-5-13zM5245 4590c3-5 8-10 11-10 2 0 4 5 4 10 0 6-5 10-11 10-5 0-7-4-4-10zM6690 2247c0-8 12-17 28-20 36-7 37-4 2 17-25 14-30 15-30 3zM6760 2231c0-5 7-12 16-15 14-5 15-4 4 9-14 17-20 19-20 6zM4545 1979c-11-6-33-23-48-38-86-79-76-202 22-268 96-65 250 19 251 138 0 48-43 130-80 152-38 23-119 31-145 16zM5485 1976c-47-20-93-73-106-119-15-57 1-106 51-150 90-82 219-66 270 32 26 52 25 74-4 137-25 53-58 83-115 102-43 15-58 15-96-2z"/></g></svg>